<?xml version="1.0" standalone="no"?><!DOCTYPE svg PUBLIC "-//W3C//DTD SVG 1.1//EN" "http://www.w3.org/Graphics/SVG/1.1/DTD/svg11.dtd"><svg t="1729501995217" class="icon" viewBox="0 0 1024 1024" version="1.1" xmlns="http://www.w3.org/2000/svg" p-id="19137" xmlns:xlink="http://www.w3.org/1999/xlink" width="200" height="200"><path d="M490.24 501.376h-10.56a32 32 0 0 1 0-64h1.472c8.704 0 18.176 0 26.24 1.024 9.28 1.28 21.248 4.48 31.36 14.528a52.864 52.864 0 0 1 14.528 31.36c1.088 8 1.024 17.472 1.024 26.24v214.784a32 32 0 0 1-64 0V512v-10.624zM511.68 298.688a42.688 42.688 0 1 0 0 85.312H512a42.688 42.688 0 0 0 0-85.312h-0.384z" fill="#707070" p-id="19138"></path><path d="M509.568 74.688h4.864c93.44 0 166.912 0 224.192 7.68 58.752 7.872 105.344 24.384 141.952 61.056 36.608 36.608 53.12 83.2 61.056 141.952 7.68 57.28 7.68 130.688 7.68 224.192v4.864c0 93.44 0 166.912-7.68 224.192-7.872 58.752-24.384 105.344-61.056 141.952-36.608 36.608-83.2 53.12-141.952 61.056-57.28 7.68-130.688 7.68-224.192 7.68h-4.864c-93.44 0-166.912 0-224.192-7.68-58.752-7.872-105.344-24.384-141.952-61.056-36.672-36.608-53.12-83.2-61.056-141.952-7.68-57.28-7.68-130.688-7.68-224.192v-4.864c0-93.44 0-166.912 7.68-224.192 7.872-58.752 24.384-105.344 61.056-141.952 36.608-36.672 83.2-53.12 141.952-61.056 57.28-7.68 130.688-7.68 224.192-7.68z m-215.68 71.104c-51.648 6.976-82.496 20.096-105.216 42.88-22.784 22.72-35.904 53.568-42.88 105.216-7.04 52.544-7.104 121.664-7.104 218.112s0 165.568 7.104 218.112c6.976 51.648 20.096 82.496 42.88 105.216 22.72 22.784 53.568 35.904 105.216 42.88 52.544 7.04 121.664 7.104 218.112 7.104s165.568 0 218.112-7.104c51.648-6.976 82.496-20.096 105.216-42.88 22.784-22.72 35.904-53.568 42.88-105.216 7.04-52.544 7.104-121.664 7.104-218.112s0-165.568-7.104-218.112c-6.976-51.648-20.096-82.496-42.88-105.216-22.72-22.784-53.568-35.904-105.216-42.88-52.544-7.04-121.664-7.104-218.112-7.104s-165.568 0-218.112 7.104z" fill="#707070" p-id="19139"></path></svg>