<?xml version="1.0" standalone="no"?><!DOCTYPE svg PUBLIC "-//W3C//DTD SVG 1.1//EN" "http://www.w3.org/Graphics/SVG/1.1/DTD/svg11.dtd"><svg t="1729502091405" class="icon" viewBox="0 0 1024 1024" version="1.1" xmlns="http://www.w3.org/2000/svg" p-id="26060" data-spm-anchor-id="a313x.search_index.0.i25.77e53a81pZzBf1" xmlns:xlink="http://www.w3.org/1999/xlink" width="200" height="200"><path d="M958.253176 148.931765l-44.15247-0.692706c-1.054118 0-99.990588-2.048-202.11953-41.743059C607.171765 65.716706 539.648 18.913882 539.045647 18.492235l-26.593882-18.462117-26.533647 18.462117c-0.632471 0.451765-68.216471 47.284706-172.965647 88.003765-102.098824 39.755294-201.095529 41.743059-201.938824 41.743059l-44.393412 0.692706v430.471529C66.620235 795.497412 356.592941 1024 512.481882 1024c155.979294 0 445.921882-228.472471 445.921883-444.626824l-0.180706-430.471529zM512.481882 960.090353c-129.505882 0-381.952-205.522824-381.952-380.687059V211.305412c36.502588-2.499765 119.265882-11.625412 205.552942-45.176471 88.455529-34.484706 152.756706-73.426824 176.459294-88.636235 25.479529 16.564706 87.883294 54.211765 176.24847 88.606118 86.648471 33.641412 169.562353 42.706824 205.583059 45.17647l0.120471 368.128c0 175.194353-252.506353 380.687059-382.012236 380.687059z" fill="#707070" p-id="26061"></path><path d="M778.511059 553.863529l-170.947765 170.767059-71.68-81.257412a31.954824 31.954824 0 0 0-47.887059 42.224942l94.08753 106.797176a31.713882 31.713882 0 0 0 23.973647 10.782118 31.864471 31.864471 0 0 0 22.588235-9.336471l195.041882-194.710588a32.075294 32.075294 0 0 0 0.060236-45.236706 32.135529 32.135529 0 0 0-45.236706-0.060235z" fill="#1296db" p-id="26062" data-spm-anchor-id="a313x.search_index.0.i27.77e53a81pZzBf1" class="selected"></path><path d="M603.678118 611.84c14.968471-15.088941 30.72-29.394824 47.134117-42.887529a231.905882 231.905882 0 0 0-76.438588-53.729883c34.936471-26.955294 57.825882-68.879059 57.825882-116.34447 0-81.438118-66.258824-147.757176-147.727058-147.757177a147.877647 147.877647 0 0 0-147.727059 147.757177c0 47.284706 22.768941 89.057882 57.524706 116.103529-81.438118 35.056941-138.691765 116.073412-138.691765 210.251294a31.984941 31.984941 0 1 0 63.939765 0 165.104941 165.104941 0 0 1 164.954353-164.954353c46.953412 0 89.148235 19.907765 119.205647 51.561412z m-203.053177-212.961882a83.937882 83.937882 0 0 1 83.817412-83.817412 83.937882 83.937882 0 0 1 83.817412 83.817412c0 46.170353-37.647059 83.727059-83.817412 83.727058a83.907765 83.907765 0 0 1-83.817412-83.727058z" fill="#1296db" p-id="26063" data-spm-anchor-id="a313x.search_index.0.i26.77e53a81pZzBf1" class="selected"></path></svg>