<?xml version="1.0" standalone="no"?><!DOCTYPE svg PUBLIC "-//W3C//DTD SVG 1.1//EN" "http://www.w3.org/Graphics/SVG/1.1/DTD/svg11.dtd"><svg t="1729586885958" class="icon" viewBox="0 0 1024 1024" version="1.1" xmlns="http://www.w3.org/2000/svg" p-id="7519" xmlns:xlink="http://www.w3.org/1999/xlink" width="200" height="200"><path d="M148.1216 337.5616l363.3664 270.2848 370.2272-263.2704V210.5856l-733.5936-1.792z" fill="#D9FFEC" p-id="7520"></path><path d="M513.6896 660.8384c-8.4992 0-16.9472-2.6112-24.1664-7.8848L107.008 373.8112c-18.2784-13.312-22.272-38.9632-8.96-57.2416 13.312-18.2784 38.9632-22.272 57.2416-8.96l358.5024 261.632 361.8304-261.7344a40.94976 40.94976 0 0 1 57.1904 9.1648 40.94976 40.94976 0 0 1-9.1648 57.1904l-385.8944 279.1424a40.576 40.576 0 0 1-24.064 7.8336z" fill="#3AD285" p-id="7521"></path><path d="M826.4704 877.7216H201.2672c-68.0448 0-123.4432-55.3472-123.4432-123.4432V272.64c0-68.0448 55.3472-123.4432 123.4432-123.4432h625.2032c68.0448 0 123.4432 55.3472 123.4432 123.4432v481.5872c0 68.096-55.3984 123.4944-123.4432 123.4944zM201.2672 231.168c-22.8864 0-41.5232 18.6368-41.5232 41.5232v481.5872c0 22.8864 18.6368 41.5232 41.5232 41.5232h625.2032c22.8864 0 41.5232-18.6368 41.5232-41.5232V272.64c0-22.8864-18.6368-41.5232-41.5232-41.5232H201.2672z" fill="#34333A" p-id="7522"></path></svg>