<?xml version="1.0" standalone="no"?><!DOCTYPE svg PUBLIC "-//W3C//DTD SVG 1.1//EN" "http://www.w3.org/Graphics/SVG/1.1/DTD/svg11.dtd"><svg t="1729587262766" class="icon" viewBox="0 0 1024 1024" version="1.1" xmlns="http://www.w3.org/2000/svg" p-id="34792" xmlns:xlink="http://www.w3.org/1999/xlink" width="200" height="200"><path d="M274.432 582.144h480.768v265.216H274.432v-265.216z" fill="#D9FFEC" p-id="34793"></path><path d="M852.48 540.16H177.664c-44.032 0-79.872-35.84-79.872-79.872V335.872c0-44.032 35.84-79.872 79.872-79.872h159.744V175.616c0-48.64 39.424-88.064 88.064-88.064h179.2c48.64 0 88.064 39.424 88.064 88.064V256h159.744c44.032 0 79.872 35.84 79.872 79.872v124.416c0 44.032-35.84 79.872-79.872 79.872z m-672.768-81.92h670.72V337.92h-198.656c-22.528 0-40.96-18.432-40.96-40.96V175.616c0-3.584-2.56-6.144-6.144-6.144h-179.2c-3.584 0-6.144 2.56-6.144 6.144V296.96c0 22.528-18.432 40.96-40.96 40.96H179.712v120.32z" fill="#34333A" p-id="34794"></path><path d="M390.656 889.856c-22.528 0-40.96-18.432-40.96-40.96v-173.568c0-22.528 18.432-40.96 40.96-40.96s40.96 18.432 40.96 40.96v173.568c0 22.528-18.432 40.96-40.96 40.96z" fill="#3AD285" p-id="34795"></path><path d="M797.696 932.352H232.448c-53.248 0-96.256-43.008-96.256-96.256v-256h81.92v256c0 8.192 6.656 14.336 14.336 14.336h565.248c8.192 0 14.336-6.656 14.336-14.336v-256h81.92v256c0 52.736-43.008 96.256-96.256 96.256z" fill="#34333A" p-id="34796"></path></svg>