<?xml version="1.0" standalone="no"?><!DOCTYPE svg PUBLIC "-//W3C//DTD SVG 1.1//EN" "http://www.w3.org/Graphics/SVG/1.1/DTD/svg11.dtd"><svg t="1729587005322" class="icon" viewBox="0 0 1024 1024" version="1.1" xmlns="http://www.w3.org/2000/svg" p-id="18712" xmlns:xlink="http://www.w3.org/1999/xlink" width="200" height="200"><path d="M493.568 485.184a32 32 0 1 0 45.248 45.248l169.706667-169.706667 56.576 18.858667 165.909333-165.930667-105.578667-15.104-15.104-105.6-165.930666 165.930667 18.88 56.576-169.706667 169.728z" fill="#28C67E" p-id="18713"></path><path d="M826.218667 388.224l-97.493334 97.514667-45.781333-15.488-57.941333 57.941333a148.992 148.992 0 0 1-42.410667 124.437333 149.333333 149.333333 0 0 1-211.178667-211.2 148.992 148.992 0 0 1 124.437334-42.410666l57.941333-57.941334-15.509333-45.781333 97.514666-97.514667C494.250667 133.461333 321.834667 159.104 205.44 275.498667c-149.952 149.973333-149.952 393.088 0 543.082666 149.973333 149.952 393.109333 149.952 543.061333 0 116.394667-116.416 142.016-288.832 77.717334-430.357333z" fill="#28C67E" p-id="18714"></path></svg>