<?xml version="1.0" standalone="no"?><!DOCTYPE svg PUBLIC "-//W3C//DTD SVG 1.1//EN" "http://www.w3.org/Graphics/SVG/1.1/DTD/svg11.dtd"><svg t="1731160996943" class="icon" viewBox="0 0 1024 1024" version="1.1" xmlns="http://www.w3.org/2000/svg" p-id="1654" xmlns:xlink="http://www.w3.org/1999/xlink" width="200" height="200"><path d="M0 0h1024v1024H0z" fill="#FFFFFF" fill-opacity="0" p-id="1655"></path><path d="M533.188 122.817l417.98 382.432c6.52 5.965 6.969 16.086 1.004 22.606a16 16 0 0 1-11.805 5.199h-88.316l0.001 313.354h-0.07c-1.589 36.255-29.716 65.21-64.388 65.802l-1.084 0.01-151.459-0.001 0.001-209.305c0-18.423-14.393-33.392-32.257-33.69l-0.543-0.004h-180.4c-18.115 0-32.8 15.085-32.8 33.694v209.305H237.594l-1.084-0.009c-34.672-0.592-62.799-29.547-64.387-65.802h-0.072V533.054H82.75c-8.836 0-16-7.163-16-16a16 16 0 0 1 5.2-11.805l418.037-382.434c12.228-11.186 30.974-11.186 43.201 0.002z m36.264 613.79V912.22h-114.8V736.608h114.8z" fill="#666666" p-id="1656"></path></svg>