<?xml version="1.0" standalone="no"?><!DOCTYPE svg PUBLIC "-//W3C//DTD SVG 1.1//EN" "http://www.w3.org/Graphics/SVG/1.1/DTD/svg11.dtd"><svg t="1729501870252" class="icon" viewBox="0 0 1024 1024" version="1.1" xmlns="http://www.w3.org/2000/svg" p-id="10595" xmlns:xlink="http://www.w3.org/1999/xlink" width="200" height="200"><path d="M511.470037 0.120704a298.380114 298.380114 0 0 0-121.318159 571.457683A453.379144 453.379144 0 0 0 66.525075 999.934264v2.345931h0.390989a22.900758 22.900758 0 0 0 22.62148 21.225093 22.844902 22.844902 0 0 0 22.677335-21.225093h0.335133C112.550012 772.546499 297.766871 597.77462 528.282545 597.77462v-0.837833A298.491825 298.491825 0 0 0 511.470037 0.120704z m0 551.461412a252.746165 252.746165 0 1 1 253.528143-252.69031 253.472287 253.472287 0 0 1-253.528143 252.69031z m445.112529 449.022414v-0.726121c-0.837833-137.125268-69.428394-278.66312-185.32857-361.440981v0.390989a22.342202 22.342202 0 0 0-12.6792-4.35673 22.956613 22.956613 0 0 0-23.012468 22.956613 22.342202 22.342202 0 0 0 8.713459 17.65034v0.335133c104.449797 74.567101 166.784541 189.182599 166.784541 327.033989h0.390989a22.677336 22.677336 0 0 0 45.298815 0h0.335133v-1.340532-0.5027z" fill="#707070" p-id="10596"></path></svg>