<?xml version="1.0" standalone="no"?><!DOCTYPE svg PUBLIC "-//W3C//DTD SVG 1.1//EN" "http://www.w3.org/Graphics/SVG/1.1/DTD/svg11.dtd"><svg t="1731160747724" class="icon" viewBox="0 0 1024 1024" version="1.1" xmlns="http://www.w3.org/2000/svg" p-id="1262" xmlns:xlink="http://www.w3.org/1999/xlink" width="200" height="200"><path d="M0 0h1024v1024H0z" fill="#1296db" fill-opacity="0" p-id="1263"></path><path d="M851.955 648a32 32 0 0 1 27.713 16l71.524 123.885a32 32 0 0 1 0 32l-71.524 123.884a32 32 0 0 1-27.713 16h-143.05a32 32 0 0 1-27.713-16l-71.524-123.884a32 32 0 0 1 0-32L681.192 664a32 32 0 0 1 27.713-16h143.05zM512 513c84.516 0 162.894 26.277 227.41 71.107l-67.76 0.008a32 32 0 0 0-27.76 16.082L536.137 788.102a32 32 0 0 0-0.017 31.806L588.795 912H146.337l-0.486-0.004c-17.429-0.283-31.47-14.5-31.47-31.996 0-1.49 0.101-2.957 0.298-4.393l-0.037-0.045C133.045 672.278 303.922 513 512 513z m268.38 231c-33.137 0-60 26.863-60 60s26.863 60 60 60 60-26.863 60-60-26.863-60-60-60zM512.5 64C636.488 64 737 164.512 737 288.5S636.488 513 512.5 513 288 412.488 288 288.5 388.512 64 512.5 64z" fill="#1296db" p-id="1264"></path></svg>