<?xml version="1.0" standalone="no"?><!DOCTYPE svg PUBLIC "-//W3C//DTD SVG 1.1//EN" "http://www.w3.org/Graphics/SVG/1.1/DTD/svg11.dtd"><svg t="1729501905812" class="icon" viewBox="0 0 1102 1024" version="1.1" xmlns="http://www.w3.org/2000/svg" p-id="12221" xmlns:xlink="http://www.w3.org/1999/xlink" width="215.234375" height="200"><path d="M564.225768 981.464779a82.707374 82.707374 0 0 1-55.138249-21.110073l-141.468994-126.817973H115.794262A115.790324 115.790324 0 0 1 0.003938 717.746409V115.794262A114.845097 114.845097 0 0 1 115.794262 0.003938h871.184342A114.845097 114.845097 0 0 1 1102.768928 115.794262v601.952147a115.790324 115.790324 0 0 1-115.790324 115.790324H735.154342l-107.519587 119.413694a79.950462 79.950462 0 0 1-61.518532 28.514352h-1.890455zM82.711313 692.934196a57.895162 57.895162 0 0 0 57.895162 57.895162h227.01205a67.977585 67.977585 0 0 1 44.977057 16.541475l147.061589 131.386572 115.790323-125.006289a67.111126 67.111126 0 0 1 50.569652-22.921758h236.149246a57.895162 57.895162 0 0 0 57.895162-57.895162v-551.382494a57.895162 57.895162 0 0 0-57.895162-58.840389H140.606475a57.895162 57.895162 0 0 0-57.895162 57.895162v552.327721z m101.060534-276.636474a59.706847 59.706847 0 0 0 59.785616 60.652074 60.652074 60.652074 0 1 0 0-120.358921 59.706847 59.706847 0 0 0-59.785616 59.706847z m305.150826 0a60.652074 60.652074 0 0 0 62.46376 60.652074 60.652074 60.652074 0 1 0-60.652074-60.652074h-1.811686z m306.017285 0a60.652074 60.652074 0 1 0 59.706847-59.706847 59.785616 59.785616 0 0 0-59.706847 59.706847z" fill="#707070" p-id="12222"></path></svg>