<?xml version="1.0" standalone="no"?><!DOCTYPE svg PUBLIC "-//W3C//DTD SVG 1.1//EN" "http://www.w3.org/Graphics/SVG/1.1/DTD/svg11.dtd"><svg t="1729501963362" class="icon" viewBox="0 0 1024 1024" version="1.1" xmlns="http://www.w3.org/2000/svg" p-id="15480" xmlns:xlink="http://www.w3.org/1999/xlink" width="200" height="200"><path d="M402.773333 535.893333H105.813333c-37.546667 0-71.68 30.72-71.68 71.68v290.133334c0 44.373333 30.72 75.093333 71.68 75.093333h290.133334c40.96 0 71.68-30.72 71.68-71.68V614.4c3.413333-20.48-3.413333-40.96-17.066667-54.613333-13.653333-17.066667-30.72-23.893333-47.786667-23.893334z m0 71.68v293.546667c0 3.413333-3.413333 6.826667-6.826666 6.826667H105.813333c-3.413333 0-6.826667 0-6.826666-10.24v-290.133334c0-3.413333 3.413333-6.826667 6.826666-6.826666h296.96v6.826666zM402.773333 51.2H105.813333C68.266667 51.2 34.133333 81.92 34.133333 122.88v290.133333c0 40.96 30.72 71.68 71.68 71.68h290.133334c40.96 0 71.68-30.72 71.68-71.68V126.293333c3.413333-20.48-3.413333-37.546667-17.066667-51.2-6.826667-13.653333-30.72-23.893333-47.786667-23.893333z m0 361.813333c0 3.413333-3.413333 6.826667-6.826666 6.826667H105.813333c-3.413333 0-3.413333-3.413333-3.413333-6.826667V122.88c0-3.413333 0-6.826667 3.413333-6.826667h293.546667c3.413333 0 3.413333 0 3.413333 3.413334v293.546666zM887.466667 535.893333h-290.133334c-40.96 0-71.68 30.72-71.68 71.68v290.133334c0 40.96 30.72 71.68 71.68 71.68H887.466667c40.96 0 71.68-30.72 71.68-71.68v-290.133334c-3.413333-40.96-37.546667-71.68-71.68-71.68z m3.413333 361.813334c0 3.413333-3.413333 6.826667-6.826667 6.826666h-290.133333c-3.413333 0-6.826667-3.413333-6.826667-6.826666v-290.133334c0-3.413333 3.413333-6.826667 6.826667-6.826666H887.466667c3.413333 0 6.826667 3.413333 6.826666 6.826666v290.133334zM983.04 225.28c-3.413333-13.653333-10.24-23.893333-20.48-23.893333H955.733333c-34.133333 0-58.026667-27.306667-58.026666-58.026667 0-10.24 6.826667-23.893333 6.826666-23.893333 6.826667-13.653333 0-27.306667-10.24-34.133334l-58.026666-34.133333h-6.826667c-10.24 0-17.066667 3.413333-23.893333 10.24-6.826667 6.826667-30.72 27.306667-47.786667 27.306667-20.48 0-40.96-20.48-47.786667-27.306667s-13.653333-10.24-20.48-10.24c-3.413333 0-6.826667 0-10.24 3.413333l-58.026666 34.133334c-10.24 6.826667-13.653333 20.48-10.24 34.133333 0 0 6.826667 13.653333 6.826666 23.893333 0 34.133333-27.306667 58.026667-58.026666 58.026667h-3.413334c-10.24 0-17.066667 10.24-20.48 23.893333 0 0-3.413333 27.306667-3.413333 47.786667 0 20.48 3.413333 44.373333 3.413333 47.786667 3.413333 6.826667 10.24 17.066667 20.48 17.066666 37.546667 0 61.44 27.306667 61.44 58.026667 0 10.24-6.826667 23.893333-6.826666 23.893333-6.826667 13.653333 0 27.306667 10.24 34.133334l54.613333 34.133333c3.413333 0 6.826667 3.413333 10.24 3.413333 10.24 0 17.066667-3.413333 23.893333-10.24s30.72-27.306667 47.786667-27.306666c20.48 0 44.373333 20.48 47.786667 30.72 6.826667 6.826667 13.653333 10.24 23.893333 10.24 3.413333 0 6.826667 0 10.24-3.413334l58.026667-34.133333c10.24-6.826667 13.653333-23.893333 10.24-34.133333 0 0-6.826667-13.653333-6.826667-23.893334 0-34.133333 27.306667-58.026667 58.026667-58.026666h3.413333c10.24 0 17.066667-10.24 20.48-23.893334 0 0 3.413333-27.306667 3.413333-47.786666 3.413333-23.893333-3.413333-47.786667-3.413333-47.786667z m-228.693333 126.293333c-44.373333 0-78.506667-37.546667-78.506667-78.506666 0-44.373333 37.546667-78.506667 78.506667-78.506667 44.373333 0 78.506667 37.546667 78.506666 78.506667 3.413333 44.373333-30.72 78.506667-78.506666 78.506666z" p-id="15481" fill="#707070"></path></svg>